# xmcd CD database file generated by LOLA_Freedb v0.9beta0
# 
# Track frame offsets:
#      150
#      12287
#      22202
#      32980
#      45667
#      53457
#      64542
#      74160
#      84340
#      95200
#      105287
#      115417
#      127880
#      139845
#      148025
#      158460
#      167427
#      178862
# 
# Disc length: 2514 seconds
# 
# Revision: 0 
# Processed by: cddbd v1.5.2PL0 Copyright (c) Steve Scherf et al.
# Submitted via: LOLA_Freedb v0.9beta0
# 
DISCID=f309d012
DTITLE=Johnny Cash - Folsom Prison Blues
DYEAR=1900
DGENRE=Country
TTITLE0=You´re The Nearest Thing
TTITLE1=Rock Island Line
TTITLE2=Cold Cold Heart
TTITLE3=Folsom Prison Blues
TTITLE4=Hey Good Lookin´
TTITLE5=I Love You Because
TTITLE6=Just About Time
TTITLE7=Straight A´s In Love
TTITLE8=I Just Thought You´d Like To Know
TTITLE9=Goodbye Little Darling
TTITLE10=I Could Never Be  Ashamed Of You
TTITLE11=Next In Line
TTITLE12=Port Of Lonely Hearts
TTITLE13=Sugartime
TTITLE14=There You Go
TTITLE15=Two timin´ Woman
TTITLE16=Big River
TTITLE17=Ballad Og A Teenage Queen
EXTD=
EXTT0=
EXTT1=
EXTT2=
EXTT3=
EXTT4=
EXTT5=
EXTT6=
EXTT7=
EXTT8=
EXTT9=
EXTT10=
EXTT11=
EXTT12=
EXTT13=
EXTT14=
EXTT15=
EXTT16=
EXTT17=
PLAYORDER=
